<svg width="650" height="650" viewBox="0 0 650 650" fill="none" xmlns="http://www.w3.org/2000/svg">
<circle cx="325" cy="325" r="325" fill="#F3F3FD"/>
<mask id="mask0" mask-type="alpha" maskUnits="userSpaceOnUse" x="0" y="0" width="650" height="650">
<circle cx="325" cy="325" r="325" fill="#F3F3FD"/>
</mask>
<g mask="url(#mask0)">
<path d="M716.562 181.578L715.448 180.429C707.645 174.686 696.499 175.835 689.811 183.875L665.289 218.331C664.175 220.628 663.06 221.777 660.831 224.074L648.57 242.451C606.214 298.73 564.972 356.157 520.387 415.881C489.177 361.9 460.196 309.066 431.216 258.53C431.216 258.53 431.216 258.53 431.216 257.382L389.974 186.172C384.401 176.983 374.37 174.686 365.453 179.281L363.223 180.429C354.306 186.172 352.077 196.509 356.535 205.697L376.599 241.302C413.382 311.364 452.394 380.276 491.406 448.041C509.24 480.2 520.387 481.349 541.565 452.635C572.775 410.139 603.984 367.642 635.194 323.998C646.34 309.066 657.487 292.987 668.633 278.056L669.748 276.907L719.906 206.846C726.594 198.806 725.48 187.32 716.562 181.578Z" fill="#0300FF"/>
<path d="M294.237 178.564H288.663C283.09 178.564 277.517 180.861 273.058 185.455L117.01 338.212L-16.7463 188.9C-20.0902 183.158 -24.5488 179.712 -31.2366 178.564H-36.8097C-46.8414 177.415 -55.7585 185.455 -55.7585 195.792L-74.7073 453.066C-75.8219 463.403 -68.0195 472.592 -57.9878 472.592H-52.4146C-42.3829 473.74 -33.4658 465.7 -33.4658 455.364L-17.861 250.922L103.634 386.451C110.322 394.49 121.468 394.49 129.271 387.599L133.729 383.005L134.844 381.856L264.141 253.219L249.651 453.066C248.537 463.403 256.339 472.592 266.371 472.592H271.944C281.976 473.74 290.893 465.7 290.893 455.364L309.841 198.089C310.956 187.752 303.154 178.564 294.237 178.564Z" fill="#0300FF"/>
</g>
</svg>
